<svg t="1680864235077" class="icon" viewBox="0 0 1024 1024" version="1.1" xmlns="http://www.w3.org/2000/svg" p-id="4339" width="32" height="32"><path d="M810.666667 85.333333H213.333333a128 128 0 0 0-128 128v597.333334a128 128 0 0 0 128 128h597.333334a128 128 0 0 0 128-128V213.333333a128 128 0 0 0-128-128z m42.666666 725.333334a42.666667 42.666667 0 0 1-42.666666 42.666666H213.333333a42.666667 42.666667 0 0 1-42.666666-42.666666V341.333333h682.666666zM170.666667 256v-42.666667a42.666667 42.666667 0 0 1 42.666666-42.666666h597.333334a42.666667 42.666667 0 0 1 42.666666 42.666666v42.666667z" p-id="4340" fill="#002dde"></path><path d="M256 584.106667a40.533333 40.533333 0 0 0 11.733333 21.333333l90.453334 90.666667a42.666667 42.666667 0 0 0 60.373333-60.373334L359.04 576l60.373333-60.373333a42.666667 42.666667 0 0 0-60.373333-60.373334l-90.453333 90.666667a37.973333 37.973333 0 0 0-9.386667 14.08 40.746667 40.746667 0 0 0-3.2 24.106667zM604.586667 696.746667a42.666667 42.666667 0 0 0 60.373333 0l90.453333-90.666667a40.533333 40.533333 0 0 0 11.733334-21.333333 42.666667 42.666667 0 0 0-2.346667-24.106667 37.973333 37.973333 0 0 0-9.386667-14.08l-90.453333-90.666667a42.666667 42.666667 0 0 0-60.373333 60.373334l60.373333 59.733333-60.373333 60.373333a42.666667 42.666667 0 0 0 0 60.373334z" p-id="4341" fill="#002dde"></path></svg>