<?xml version="1.0" encoding="utf-8"?>
<svg id="master-artboard" viewBox="0 0 414 50" version="1.1" xmlns="http://www.w3.org/2000/svg" x="0px" y="0px" style="enable-background:new 0 0 1400 980;" width="414px" height="50px"><rect id="ee-background" x="0" y="0" width="414" height="50" style="fill: white; fill-opacity: 0; pointer-events: none;"/><defs><style id="ee-google-fonts">@import url(https://fonts.googleapis.com/css?family=Alfa+Slab+One:400);</style></defs><path d="M 263.6463317871094 250.80152893066406 L 258.0863342285156 226.2415313720703 L 256.4863586425781 226.2415313720703 L 256.4863586425781 219.68153381347656 L 272.3663330078125 219.68153381347656 L 272.3663330078125 226.2415313720703 L 269.766357421875 226.2415313720703 L 271.7263488769531 241.2415313720703 L 272.1263427734375 241.2415313720703 L 276.7263488769531 219.68153381347656 L 288.246337890625 219.68153381347656 L 292.56634521484375 241.2415313720703 L 292.9663391113281 241.2415313720703 L 294.92633056640625 226.2415313720703 L 292.32635498046875 226.2415313720703 L 292.32635498046875 219.68153381347656 L 306.20635986328125 219.68153381347656 L 306.20635986328125 226.2415313720703 L 304.6063537597656 226.2415313720703 L 299.44635009765625 250.80152893066406 L 285.4863586425781 250.80152893066406 L 281.8463439941406 234.321533203125 L 281.44635009765625 234.321533203125 L 277.6063537597656 250.80152893066406 L 263.6463317871094 250.80152893066406 ZM 327.6903381347656 226.2415313720703 L 322.850341796875 226.2415313720703 L 322.850341796875 232.5615234375 L 326.3703308105469 232.5615234375 L 326.3703308105469 237.12152099609375 L 322.850341796875 237.12152099609375 L 322.850341796875 244.2415313720703 L 327.6903381347656 244.2415313720703 L 327.6903381347656 237.92152404785156 L 336.65032958984375 237.92152404785156 L 336.65032958984375 250.80152893066406 L 309.2503356933594 250.80152893066406 L 309.2503356933594 244.2415313720703 L 311.65032958984375 244.2415313720703 L 311.65032958984375 226.2415313720703 L 309.2503356933594 226.2415313720703 L 309.2503356933594 219.68153381347656 L 336.65032958984375 219.68153381347656 L 336.65032958984375 231.76153564453125 L 327.6903381347656 231.76153564453125 L 327.6903381347656 226.2415313720703 ZM 363.48828125 219.68153381347656 L 377.48828125 219.68153381347656 L 377.48828125 226.2415313720703 L 375.0882873535156 226.2415313720703 L 375.0882873535156 250.80152893066406 L 363.8482971191406 250.80152893066406 L 352.1282958984375 232.76153564453125 L 352.1282958984375 244.2415313720703 L 354.5282897949219 244.2415313720703 L 354.5282897949219 250.80152893066406 L 340.5282897949219 250.80152893066406 L 340.5282897949219 244.2415313720703 L 342.92828369140625 244.2415313720703 L 342.92828369140625 226.2415313720703 L 340.5282897949219 226.2415313720703 L 340.5282897949219 219.68153381347656 L 355.3682861328125 219.68153381347656 L 365.8882751464844 235.76153564453125 L 365.8882751464844 226.2415313720703 L 363.48828125 226.2415313720703 L 363.48828125 219.68153381347656 ZM 380.7105712890625 219.68153381347656 L 399.83056640625 219.68153381347656 L 404.39056396484375 233.4015350341797 L 408.79058837890625 219.68153381347656 L 427.2305908203125 219.68153381347656 L 427.2305908203125 226.2415313720703 L 424.83056640625 226.2415313720703 L 424.83056640625 244.2415313720703 L 427.2305908203125 244.2415313720703 L 427.2305908203125 250.80152893066406 L 411.2305908203125 250.80152893066406 L 411.2305908203125 244.2415313720703 L 413.6305847167969 244.2415313720703 L 413.6305847167969 228.4415283203125 L 405.67059326171875 250.80152893066406 L 401.3505859375 250.80152893066406 L 392.3105773925781 228.3615264892578 L 392.3105773925781 244.2415313720703 L 394.7105712890625 244.2415313720703 L 394.7105712890625 250.80152893066406 L 380.7105712890625 250.80152893066406 L 380.7105712890625 244.2415313720703 L 383.1105651855469 244.2415313720703 L 383.1105651855469 226.2415313720703 L 380.7105712890625 226.2415313720703 L 380.7105712890625 219.68153381347656 ZM 430.84832763671875 219.68153381347656 L 446.84832763671875 219.68153381347656 L 446.84832763671875 226.2415313720703 L 444.4483337402344 226.2415313720703 L 444.4483337402344 244.2415313720703 L 446.84832763671875 244.2415313720703 L 446.84832763671875 250.80152893066406 L 430.84832763671875 250.80152893066406 L 430.84832763671875 244.2415313720703 L 433.2483215332031 244.2415313720703 L 433.2483215332031 226.2415313720703 L 430.84832763671875 226.2415313720703 L 430.84832763671875 219.68153381347656 ZM 473.28265380859375 219.68153381347656 L 487.28265380859375 219.68153381347656 L 487.28265380859375 226.2415313720703 L 484.8826599121094 226.2415313720703 L 484.8826599121094 250.80152893066406 L 473.6426696777344 250.80152893066406 L 461.92266845703125 232.76153564453125 L 461.92266845703125 244.2415313720703 L 464.3226623535156 244.2415313720703 L 464.3226623535156 250.80152893066406 L 450.3226623535156 250.80152893066406 L 450.3226623535156 244.2415313720703 L 452.72265625 244.2415313720703 L 452.72265625 226.2415313720703 L 450.3226623535156 226.2415313720703 L 450.3226623535156 219.68153381347656 L 465.16265869140625 219.68153381347656 L 475.6826477050781 235.76153564453125 L 475.6826477050781 226.2415313720703 L 473.28265380859375 226.2415313720703 L 473.28265380859375 219.68153381347656 ZM 505.7900390625 234.84152221679688 L 519.9500122070312 234.84152221679688 L 519.9500122070312 240.80152893066406 L 517.9500122070312 240.80152893066406 L 517.9500122070312 248.80152893066406 C 517.336669921875 249.09486389160156 516.6233520507812 249.39486694335938 515.81005859375 249.70152282714844 C 514.9967041015625 250.00819396972656 514.0633544921875 250.28152465820312 513.010009765625 250.5215301513672 C 511.9566955566406 250.76153564453125 510.7767028808594 250.96153259277344 509.47003173828125 251.1215362548828 C 508.1633605957031 251.28152465820312 506.71002197265625 251.3615264892578 505.11004638671875 251.3615264892578 C 502.71002197265625 251.3615264892578 500.5500183105469 251.0681915283203 498.6300354003906 250.4815216064453 C 496.71002197265625 249.89486694335938 495.0766906738281 248.96153259277344 493.73004150390625 247.68153381347656 C 492.38336181640625 246.4015350341797 491.35003662109375 244.7415313720703 490.6300354003906 242.70152282714844 C 489.9100341796875 240.66152954101562 489.5500183105469 238.17486572265625 489.5500183105469 235.2415313720703 C 489.5500183105469 232.33486938476562 489.9100341796875 229.8548583984375 490.6300354003906 227.80152893066406 C 491.35003662109375 225.74819946289062 492.376708984375 224.08152770996094 493.71002197265625 222.80152893066406 C 495.0433654785156 221.5215301513672 496.6700439453125 220.58819580078125 498.59002685546875 220.00152587890625 C 500.5100402832031 219.41485595703125 502.6567077636719 219.12152099609375 505.030029296875 219.12152099609375 C 506.6567077636719 219.12152099609375 508.1300354003906 219.20152282714844 509.4500427246094 219.3615264892578 C 510.77001953125 219.5215301513672 511.9566955566406 219.7281951904297 513.010009765625 219.98153686523438 C 514.0633544921875 220.23486328125 514.9967041015625 220.51486206054688 515.81005859375 220.821533203125 C 516.6233520507812 221.12818908691406 517.336669921875 221.42819213867188 517.9500122070312 221.72152709960938 L 517.9500122070312 231.28152465820312 L 507.9500427246094 231.28152465820312 L 507.9500427246094 229.4015350341797 C 507.9500427246094 228.25486755371094 507.7167053222656 227.4415283203125 507.2500305175781 226.96153259277344 C 506.7833557128906 226.48153686523438 506.0433654785156 226.2415313720703 505.030029296875 226.2415313720703 C 504.0166931152344 226.2415313720703 503.2767028808594 226.48153686523438 502.8100280761719 226.96153259277344 C 502.3433532714844 227.4415283203125 502.1100158691406 228.25486755371094 502.1100158691406 229.4015350341797 L 502.1100158691406 241.08152770996094 C 502.1100158691406 242.2281951904297 502.3433532714844 243.04153442382812 502.8100280761719 243.5215301513672 C 503.2767028808594 244.00152587890625 504.0166931152344 244.2415313720703 505.030029296875 244.2415313720703 C 506.0433654785156 244.2415313720703 506.7833557128906 244.00152587890625 507.2500305175781 243.5215301513672 C 507.7167053222656 243.04153442382812 507.9500427246094 242.2281951904297 507.9500427246094 241.08152770996094 L 507.9500427246094 240.80152893066406 L 505.7900390625 240.80152893066406 L 505.7900390625 234.84152221679688 ZM 524.0534057617188 244.2415313720703 L 530.29345703125 244.2415313720703 L 530.29345703125 250.80152893066406 L 524.0534057617188 250.80152893066406 L 524.0534057617188 244.2415313720703 ZM 547.4376831054688 226.2415313720703 L 543.6776733398438 226.2415313720703 L 543.6776733398438 229.5215301513672 L 535.7176513671875 229.5215301513672 L 535.7176513671875 219.68153381347656 L 560.9176635742188 219.68153381347656 L 560.9176635742188 225.4415283203125 L 548.6376953125 244.2415313720703 L 553.59765625 244.2415313720703 L 553.59765625 240.96153259277344 L 561.5576782226562 240.96153259277344 L 561.5576782226562 250.80152893066406 L 535.11767578125 250.80152893066406 L 535.11767578125 245.04153442382812 L 547.4376831054688 226.2415313720703 ZM 582.66552734375 219.68153381347656 L 598.3054809570312 219.68153381347656 L 598.3054809570312 226.2415313720703 L 595.905517578125 226.2415313720703 L 595.905517578125 244.2415313720703 L 598.3054809570312 244.2415313720703 L 598.3054809570312 250.80152893066406 L 582.66552734375 250.80152893066406 L 582.66552734375 244.2415313720703 L 584.7055053710938 244.2415313720703 L 584.7055053710938 237.6415252685547 L 578.7055053710938 237.6415252685547 L 578.7055053710938 244.2415313720703 L 580.7454833984375 244.2415313720703 L 580.7454833984375 250.80152893066406 L 565.1055297851562 250.80152893066406 L 565.1055297851562 244.2415313720703 L 567.5054931640625 244.2415313720703 L 567.5054931640625 226.2415313720703 L 565.1055297851562 226.2415313720703 L 565.1055297851562 219.68153381347656 L 580.7454833984375 219.68153381347656 L 580.7454833984375 226.2415313720703 L 578.7055053710938 226.2415313720703 L 578.7055053710938 232.321533203125 L 584.7055053710938 232.321533203125 L 584.7055053710938 226.2415313720703 L 582.66552734375 226.2415313720703 L 582.66552734375 219.68153381347656 ZM 616.5718994140625 244.2415313720703 C 617.4785766601562 244.2415313720703 618.1585693359375 244.00819396972656 618.6118774414062 243.54153442382812 C 619.065185546875 243.07485961914062 619.2918701171875 242.321533203125 619.2918701171875 241.28152465820312 L 619.2918701171875 229.20152282714844 C 619.2918701171875 228.16152954101562 619.065185546875 227.408203125 618.6118774414062 226.9415283203125 C 618.1585693359375 226.47486877441406 617.4785766601562 226.2415313720703 616.5718994140625 226.2415313720703 C 615.6652221679688 226.2415313720703 614.9852294921875 226.47486877441406 614.5318603515625 226.9415283203125 C 614.0785522460938 227.408203125 613.8518676757812 228.16152954101562 613.8518676757812 229.20152282714844 L 613.8518676757812 241.28152465820312 C 613.8518676757812 242.321533203125 614.0785522460938 243.07485961914062 614.5318603515625 243.54153442382812 C 614.9852294921875 244.00819396972656 615.6652221679688 244.2415313720703 616.5718994140625 244.2415313720703 M 631.8518676757812 235.2415313720703 C 631.8518676757812 238.17486572265625 631.4918823242188 240.66152954101562 630.7719116210938 242.70152282714844 C 630.0518798828125 244.7415313720703 629.0318603515625 246.4015350341797 627.7118530273438 247.68153381347656 C 626.3919067382812 248.96153259277344 624.7852172851562 249.89486694335938 622.8919067382812 250.4815216064453 C 620.99853515625 251.0681915283203 618.8919067382812 251.3615264892578 616.5718994140625 251.3615264892578 C 614.2518920898438 251.3615264892578 612.1452026367188 251.0681915283203 610.2518920898438 250.4815216064453 C 608.3585205078125 249.89486694335938 606.7518920898438 248.96153259277344 605.431884765625 247.68153381347656 C 604.1118774414062 246.4015350341797 603.0918579101562 244.7415313720703 602.3718872070312 242.70152282714844 C 601.65185546875 240.66152954101562 601.2918701171875 238.17486572265625 601.2918701171875 235.2415313720703 C 601.2918701171875 232.33486938476562 601.65185546875 229.8548583984375 602.3718872070312 227.80152893066406 C 603.0918579101562 225.74819946289062 604.1118774414062 224.08152770996094 605.431884765625 222.80152893066406 C 606.7518920898438 221.5215301513672 608.3585205078125 220.58819580078125 610.2518920898438 220.00152587890625 C 612.1452026367188 219.41485595703125 614.2518920898438 219.12152099609375 616.5718994140625 219.12152099609375 C 618.8919067382812 219.12152099609375 620.99853515625 219.41485595703125 622.8919067382812 220.00152587890625 C 624.7852172851562 220.58819580078125 626.3919067382812 221.5215301513672 627.7118530273438 222.80152893066406 C 629.0318603515625 224.08152770996094 630.0518798828125 225.74819946289062 630.7719116210938 227.80152893066406 C 631.4918823242188 229.8548583984375 631.8518676757812 232.33486938476562 631.8518676757812 235.2415313720703 ZM 662.8788452148438 239.6415252685547 C 662.8788452148438 241.80152893066406 662.578857421875 243.6215362548828 661.9788818359375 245.10153198242188 C 661.3788452148438 246.58152770996094 660.5188598632812 247.78819274902344 659.3988647460938 248.72152709960938 C 658.2788696289062 249.6548614501953 656.925537109375 250.3282012939453 655.3388671875 250.7415313720703 C 653.752197265625 251.1548614501953 651.9855346679688 251.3615264892578 650.0388793945312 251.3615264892578 C 648.0388793945312 251.3615264892578 646.232177734375 251.1548614501953 644.6188354492188 250.7415313720703 C 643.0054931640625 250.3282012939453 641.6322021484375 249.6548614501953 640.4988403320312 248.72152709960938 C 639.3655395507812 247.78819274902344 638.4855346679688 246.58152770996094 637.8588256835938 245.10153198242188 C 637.232177734375 243.6215362548828 636.9188842773438 241.80152893066406 636.9188842773438 239.6415252685547 L 636.9188842773438 226.2415313720703 L 634.5188598632812 226.2415313720703 L 634.5188598632812 219.68153381347656 L 649.7188720703125 219.68153381347656 L 649.7188720703125 226.2415313720703 L 648.1188354492188 226.2415313720703 L 648.1188354492188 241.68153381347656 C 648.1188354492188 242.58819580078125 648.3121948242188 243.2415313720703 648.6988525390625 243.6415252685547 C 649.0855102539062 244.04153442382812 649.66552734375 244.2415313720703 650.4388427734375 244.2415313720703 C 651.212158203125 244.2415313720703 651.7921752929688 244.04153442382812 652.1788330078125 243.6415252685547 C 652.5655517578125 243.2415313720703 652.7588500976562 242.58819580078125 652.7588500976562 241.68153381347656 L 652.7588500976562 226.2415313720703 L 651.1588745117188 226.2415313720703 L 651.1588745117188 219.68153381347656 L 665.2788696289062 219.68153381347656 L 665.2788696289062 226.2415313720703 L 662.8788452148438 226.2415313720703 L 662.8788452148438 239.6415252685547 Z" transform="matrix(1, 0, 0, 1, -255.63706970214844, -208.57948303222656)" style="fill: rgb(255, 255, 255); white-space: pre; color: rgb(51, 51, 51);"/></svg>